# Blender v2.79 (sub 0) OBJ File: 'FinishLine.blend'
# www.blender.org
mtllib NewFinishLine.mtl
o Cube_Cube.001
v -3.083206 4.312118 0.561515
v -3.083206 5.626819 0.561515
v -3.083206 4.312118 -0.561515
v -3.083206 5.626819 -0.561515
v 3.134512 4.312118 0.561515
v 3.134512 5.626819 0.561515
v 3.134512 4.312118 -0.561515
v 3.134512 5.626819 -0.561515
v -2.585831 4.312119 0.380409
v -2.316841 4.312119 0.268990
v -2.316841 4.312119 -0.268990
v -2.585831 4.312119 -0.380409
v -2.854820 4.312119 0.268990
v -2.854820 4.312119 -0.268990
v -2.966239 4.312119 -0.000000
v -2.205422 4.312119 0.000000
v 2.588217 4.312119 0.380409
v 2.857207 4.312119 0.268990
v 2.857207 4.312119 -0.268990
v 2.588217 4.312119 -0.380409
v 2.319227 4.312119 0.268990
v 2.319227 4.312119 -0.268990
v 2.207808 4.312119 -0.000000
v 2.968626 4.312119 0.000000
v 2.588217 0.001017 -0.380409
v 2.857207 0.001017 -0.268990
v 2.968626 0.001017 0.000000
v 2.857207 0.001017 0.268990
v 2.588217 0.001017 0.380409
v 2.319227 0.001017 0.268990
v 2.207808 0.001017 -0.000000
v 2.319227 0.001017 -0.268990
v -2.585831 0.001017 -0.380409
v -2.316841 0.001017 -0.268990
v -2.205422 0.001017 0.000000
v -2.316841 0.001017 0.268990
v -2.585831 0.001017 0.380409
v -2.854820 0.001017 0.268990
v -2.966239 0.001017 -0.000000
v -2.854820 0.001017 -0.268990
v 2.690389 4.312118 -0.561515
v -2.194961 4.312118 0.561515
v -1.306715 4.312118 0.561515
v -0.418470 4.312118 0.561515
v 0.469776 4.312118 0.561515
v 1.358021 4.312118 0.561515
v 2.246267 4.312118 0.561515
v 2.246266 4.312118 -0.561515
v 1.358021 4.312118 -0.561515
v 0.469776 4.312118 -0.561515
v -0.418470 4.312118 -0.561515
v -1.306715 4.312118 -0.561515
v -2.194961 4.312118 -0.561515
v -3.083206 4.312118 0.000000
v -3.083206 4.873633 0.561515
v -3.083206 5.435148 0.000000
v -3.083206 4.873633 -0.561515
v -3.384269 4.873633 0.000000
v 3.134512 4.873633 -0.561515
v 3.134512 4.312118 0.000000
v 3.134512 5.435148 0.000000
v 3.134512 4.873633 0.561515
v 3.446963 4.873633 0.000000
v -2.639084 4.312118 0.561515
v 2.690389 4.312118 0.561515
v -2.639084 4.312118 -0.561515
vn -0.9514 0.2179 -0.2179
vn 0.0000 0.0000 -1.0000
vn 0.9479 0.2253 0.2253
vn 0.0000 0.0000 1.0000
vn 0.0000 1.0000 0.0000
vn 0.0000 -1.0000 -0.0000
vn 0.3827 0.0000 -0.9239
vn 0.9239 0.0000 -0.3827
vn 0.9239 0.0000 0.3827
vn 0.3827 0.0000 0.9239
vn -0.3827 0.0000 0.9239
vn -0.9239 0.0000 0.3827
vn -0.9239 0.0000 -0.3827
vn -0.3827 0.0000 -0.9239
vn -0.9351 -0.2507 -0.2507
vn -0.9351 -0.2507 0.2507
vn -0.9514 0.2179 0.2179
vn 0.9306 -0.2589 0.2589
vn 0.9306 -0.2589 -0.2589
vn 0.9479 0.2253 -0.2253
usemtl None
s off
f 58//1 56//1 4//1 57//1
f 3//2 57//2 4//2 8//2 59//2 7//2 41//2 48//2 49//2 50//2 51//2 52//2 53//2 66//2
f 63//3 61//3 6//3 62//3
f 5//4 62//4 6//4 2//4 55//4 1//4 64//4 42//4 43//4 44//4 45//4 46//4 47//4 65//4
f 8//5 4//5 56//5 2//5 6//5 61//5
f 3//6 66//6 53//6 52//6 51//6 50//6 49//6 48//6 41//6 7//6 60//6 5//6 65//6 47//6 46//6 45//6 44//6 43//6 42//6 64//6 1//6 54//6
f 25//7 20//7 19//7 26//7
f 26//8 19//8 24//8 27//8
f 27//9 24//9 18//9 28//9
f 28//10 18//10 17//10 29//10
f 29//11 17//11 21//11 30//11
f 30//12 21//12 23//12 31//12
f 31//13 23//13 22//13 32//13
f 32//14 22//14 20//14 25//14
f 25//6 26//6 27//6 28//6 29//6 30//6 31//6 32//6
f 33//7 12//7 11//7 34//7
f 34//8 11//8 16//8 35//8
f 35//9 16//9 10//9 36//9
f 36//10 10//10 9//10 37//10
f 37//11 9//11 13//11 38//11
f 38//12 13//12 15//12 39//12
f 39//13 15//13 14//13 40//13
f 40//14 14//14 12//14 33//14
f 33//6 34//6 35//6 36//6 37//6 38//6 39//6 40//6
f 54//15 58//15 57//15 3//15
f 1//16 55//16 58//16 54//16
f 55//17 2//17 56//17 58//17
f 60//18 63//18 62//18 5//18
f 7//19 59//19 63//19 60//19
f 59//20 8//20 61//20 63//20
l 24 60
l 15 54
l 16 23
l 1 13
l 3 14
l 11 53
l 10 42
l 9 64
l 5 18
l 7 19
l 21 47
l 22 48
l 20 41
l 17 65
l 12 66
l 23 49
l 16 52
l 16 43
l 23 46
