# Blender v2.79 (sub 0) OBJ File: 'gremlin.blend'
# www.blender.org
mtllib finishline.mtl
o Cube.004_Cube.007
v -2.769002 0.031414 0.304403
v -2.769002 5.569418 0.304403
v -2.769002 0.031414 -0.332849
v -2.769002 5.569418 -0.332849
v 2.769002 0.031414 0.304403
v 2.769002 5.569418 0.304403
v 2.769002 0.031414 -0.332849
v 2.769002 5.569418 -0.332849
v 0.000000 5.569418 -0.332849
v 1.384501 5.569418 -0.332849
v 2.361573 0.031414 -0.332849
v -2.382351 0.031414 -0.332849
v -1.384501 5.569418 -0.332849
v 0.000000 5.569418 0.304403
v 1.384501 5.569418 0.304403
v 2.361573 0.031414 0.304403
v -2.382351 0.031414 0.304403
v -1.384501 5.569418 0.304403
v 2.361573 2.800416 -0.332849
v -2.382351 2.800416 -0.332849
v 2.769002 2.800416 -0.332849
v -2.769002 2.800416 -0.332849
v -2.382351 4.184917 -0.332849
v 2.361573 4.184917 -0.332849
v -2.769002 4.184917 -0.332849
v 0.000000 4.184917 -0.332849
v 2.769002 4.184917 -0.332849
v 2.769002 2.800416 0.304403
v -2.769002 2.800416 0.304403
v 2.361573 2.800416 0.304403
v -2.382351 2.800416 0.304403
v -2.382351 4.184917 0.304403
v 2.769002 4.184917 0.304403
v 2.361573 4.184917 0.304403
v -2.769002 4.184917 0.304403
v 0.000000 4.184917 0.304403
vn -1.0000 0.0000 0.0000
vn 0.0000 0.0000 -1.0000
vn 1.0000 0.0000 0.0000
vn 0.0000 0.0000 1.0000
vn 0.0000 -1.0000 0.0000
vn 0.0000 1.0000 0.0000
usemtl None
s off
f 25//1 22//1 35//1
f 22//2 12//2 3//2
f 33//3 28//3 27//3
f 28//4 16//4 5//4
f 12//5 1//5 3//5
f 13//6 2//6 18//6
f 19//2 7//2 11//2
f 31//4 1//4 17//4
f 22//2 23//2 20//2
f 19//2 27//2 21//2
f 26//2 13//2 9//2
f 26//2 10//2 24//2
f 23//2 4//2 13//2
f 24//2 8//2 27//2
f 31//4 35//4 29//4
f 28//4 34//4 30//4
f 32//4 2//4 35//4
f 34//4 6//4 15//4
f 36//4 18//4 32//4
f 36//4 15//4 14//4
f 11//5 5//5 16//5
f 20//1 12//1 17//1
f 20//1 17//1 31//1
f 19//1 11//1 16//1
f 19//1 16//1 30//1
f 23//1 20//1 31//1
f 23//1 31//1 32//1
f 24//1 19//1 30//1
f 24//1 30//1 34//1
f 32//5 23//5 26//5
f 26//6 32//6 36//6
f 36//5 26//5 24//5
f 24//6 36//6 34//6
f 3//1 1//1 29//1
f 35//1 2//1 4//1
f 3//1 29//1 22//1
f 29//1 35//1 22//1
f 4//1 25//1 35//1
f 22//2 20//2 12//2
f 5//3 7//3 21//3
f 27//3 8//3 6//3
f 5//3 21//3 28//3
f 21//3 27//3 28//3
f 6//3 33//3 27//3
f 28//4 30//4 16//4
f 12//5 17//5 1//5
f 6//6 8//6 10//6
f 9//6 13//6 18//6
f 13//6 4//6 2//6
f 6//6 10//6 15//6
f 10//6 9//6 15//6
f 18//6 14//6 9//6
f 14//6 15//6 9//6
f 19//2 21//2 7//2
f 31//4 29//4 1//4
f 22//2 25//2 23//2
f 19//2 24//2 27//2
f 26//2 23//2 13//2
f 26//2 9//2 10//2
f 23//2 25//2 4//2
f 24//2 10//2 8//2
f 31//4 32//4 35//4
f 28//4 33//4 34//4
f 32//4 18//4 2//4
f 34//4 33//4 6//4
f 36//4 14//4 18//4
f 36//4 34//4 15//4
f 11//5 7//5 5//5
