# Blender v2.79 (sub 0) OBJ File: 'gremlinbase.blend'
# www.blender.org
mtllib gremlinbase.mtl
o Torus.000
v -0.835486 0.588737 1.624158
v -0.829481 0.736780 1.461822
v -0.828566 0.751969 1.419770
v -0.834161 0.626382 1.600055
v -0.829067 0.560540 1.011600
v -0.830052 0.518497 0.996393
v -0.826540 0.698766 1.122077
v -0.826315 0.722874 1.159741
v -0.826691 0.763274 1.286870
v -0.826392 0.755406 1.242849
v -0.832876 0.660558 1.571241
v -0.826266 0.741863 1.200230
v -0.827788 0.761540 1.376094
v -0.828210 0.600241 1.032166
v -0.827496 0.636920 1.057739
v -0.827159 0.765330 1.331540
v -0.826936 0.669950 1.087882
v -0.830516 0.716232 1.501528
v -0.831654 0.690679 1.538210
v 0.834203 0.694583 1.600174
v 0.822300 0.665286 1.569233
v 0.821015 0.631111 1.598047
v 0.832758 0.656136 1.632590
v 0.826966 0.604970 1.030159
v 0.826109 0.565269 1.009593
v 0.835759 0.511054 1.035569
v 0.828910 0.746592 1.198222
v 0.828784 0.760135 1.240841
v 0.825695 0.741509 1.459814
v 0.824660 0.720962 1.499520
v 0.831267 0.613786 1.659707
v 0.829756 0.568258 1.681061
v 0.828861 0.727603 1.157734
v 0.828250 0.520332 1.696287
v 0.818347 0.552997 1.641132
v 0.817009 0.510396 1.654666
v 0.828658 0.499827 1.613314
v 0.826776 0.470826 1.705124
v 0.824028 0.479561 0.984796
v 0.836147 0.485642 0.942683
v 0.826610 0.756698 1.417763
v 0.819690 0.593466 1.622150
v 0.825124 0.523227 0.994385
v 0.834357 0.661713 1.509659
v 0.835353 0.684072 1.477562
v 0.828240 0.674679 1.085874
v 0.827681 0.641649 1.055732
v 0.828636 0.703495 1.120070
v 0.828485 0.768003 1.284862
v 0.828017 0.770059 1.329532
v 0.827388 0.766269 1.374086
v 0.823522 0.695409 1.536203
v 0.833288 0.635356 1.538561
v 0.829829 0.537103 1.601472
v 0.831004 0.572514 1.584863
v 0.832164 0.605452 1.563772
v -0.839807 1.863853 -1.705193
v -0.839807 1.024046 -2.254077
v -0.839807 0.471525 -1.587259
v -0.839807 0.604143 -2.154788
v 0.839806 0.471525 -1.587259
v 0.839806 1.024046 2.276024
v 0.839806 0.459357 2.116175
v 0.839806 0.475850 1.184661
v -0.839807 0.475850 1.184661
v 0.839806 1.863853 -0.025580
v 0.839806 1.863852 -1.705193
v 0.839806 1.024046 -2.254077
v -0.839806 1.047529 0.700685
v -0.839806 1.024046 2.276023
v -0.839806 0.459357 2.116175
v 0.839806 0.604143 -2.154789
v 0.839806 1.049754 0.694587
v -0.839806 1.863853 -0.025579
v 0.822300 0.665287 -1.200017
v 0.821015 0.631111 -1.171203
v 0.832758 0.656136 -1.136660
v 0.826966 0.604970 -1.739091
v 0.826109 0.565269 -1.759658
v 0.835759 0.511054 -1.733681
v 0.828910 0.746592 -1.571028
v 0.828784 0.760136 -1.528409
v 0.825695 0.741509 -1.309436
v 0.824660 0.720962 -1.269730
v 0.831267 0.613786 -1.109543
v 0.829756 0.568258 -1.088189
v 0.828861 0.727603 -1.611516
v 0.828250 0.520332 -1.072963
v 0.818347 0.552997 -1.128118
v 0.817009 0.510396 -1.114584
v 0.828658 0.499827 -1.155936
v 0.826610 0.756698 -1.351487
v 0.819690 0.593467 -1.147099
v 0.825124 0.523227 -1.774865
v 0.828240 0.674679 -1.683376
v 0.827680 0.641649 -1.713518
v 0.828636 0.703495 -1.649180
v 0.828485 0.768003 -1.484388
v 0.828017 0.770059 -1.439718
v 0.827388 0.766269 -1.395164
v 0.823522 0.695409 -1.233047
v 0.833288 0.635356 -1.230689
v 0.829829 0.537103 -1.167778
v 0.831004 0.572514 -1.184387
v 0.832164 0.605452 -1.205477
v -0.829481 0.736780 -1.307428
v -0.828566 0.751969 -1.349479
v -0.834161 0.626382 -1.169195
v -0.829067 0.560540 -1.757649
v -0.830052 0.518498 -1.772857
v -0.826540 0.698766 -1.647172
v -0.826315 0.722874 -1.609508
v -0.826691 0.763274 -1.482380
v -0.826392 0.755407 -1.526401
v -0.832876 0.660558 -1.198008
v -0.826266 0.741863 -1.569020
v -0.827788 0.761540 -1.393155
v -0.828210 0.600241 -1.737083
v -0.827496 0.636920 -1.711510
v -0.827159 0.765330 -1.437710
v -0.826936 0.669950 -1.681368
v -0.830516 0.716233 -1.267721
v -0.831654 0.690680 -1.231039
vn -0.9631 0.1938 0.1870
vn -0.9661 0.1053 0.2358
vn -0.9651 0.1368 0.2235
vn -0.9686 -0.1648 -0.1861
vn -0.9646 -0.0518 -0.2585
vn -0.9676 -0.1404 -0.2097
vn -0.9667 -0.1131 -0.2298
vn -0.9640 0.1665 0.2071
vn -0.9695 -0.1860 -0.1596
vn -0.9656 -0.0834 -0.2461
vn -1.0000 0.0000 0.0000
vn -0.0000 -0.9738 -0.2275
vn 1.0000 0.0000 0.0000
vn 0.0000 -0.9998 -0.0177
vn 0.0000 -1.0000 0.0016
vn 0.0000 1.0000 -0.0000
vn 0.0000 0.5471 -0.8371
vn -0.0007 0.9999 0.0156
vn -0.0006 0.9999 0.0156
vn -0.0000 0.9999 0.0149
vn -0.0000 -0.2724 0.9622
vn -0.0000 -0.2301 -0.9732
vn 0.0015 0.6644 0.7473
vn 0.0002 0.6629 0.7487
vn 0.0018 0.6647 0.7471
vn -0.0013 0.9999 0.0163
vn 0.0000 0.6626 0.7490
usemtl None
s 1
f 20//1 21//1 22//1 23//1
f 34//2 32//2 35//2 36//2
f 32//3 31//3 42//3 35//3
f 52//4 44//4 53//4 21//4
f 54//5 37//5 36//5 35//5
f 22//6 21//6 53//6 56//6
f 22//7 56//7 55//7 42//7
f 23//8 22//8 42//8 31//8
f 52//9 30//9 45//9 44//9
f 35//10 42//10 55//10 54//10
f 57//11 58//11 59//11
f 60//12 61//12 59//12
f 62//13 63//13 64//13
f 63//14 65//14 64//14
f 61//15 65//15 59//15
f 57//16 66//16 67//16
f 58//17 67//17 68//17
f 62//18 69//19 70//20
f 63//21 70//21 71//21
f 60//22 68//22 72//22
f 73//23 74//24 69//25
f 88//2 86//2 89//2 90//2
f 86//3 85//3 93//3 89//3
f 103//5 91//5 90//5 89//5
f 76//6 75//6 102//6 105//6
f 76//7 105//7 104//7 93//7
f 77//8 76//8 93//8 85//8
f 89//10 93//10 104//10 103//10
f 65//11 71//11 70//11
f 69//11 74//11 59//11
f 74//11 57//11 59//11
f 65//11 70//11 69//11
f 60//11 59//11 58//11
f 59//11 65//11 69//11
f 60//12 72//12 61//12
f 64//13 61//13 73//13
f 61//13 72//13 68//13
f 73//13 61//13 66//13
f 68//13 67//13 61//13
f 67//13 66//13 61//13
f 73//13 62//13 64//13
f 63//14 71//14 65//14
f 61//15 64//15 65//15
f 57//16 74//16 66//16
f 58//17 57//17 67//17
f 62//18 73//26 69//19
f 63//21 62//21 70//21
f 60//22 58//22 68//22
f 73//23 66//27 74//24
l 34 38
l 41 51
l 2 18
l 122 123
l 46 48
l 7 17
l 46 47
l 107 117
l 7 8
l 26 43
l 114 116
l 14 15
l 95 97
l 119 121
l 1 4
l 108 115
l 75 101
l 78 79
l 92 100
l 95 96
l 24 47
l 2 3
l 13 16
l 83 84
l 33 48
l 29 30
l 79 94
l 15 17
l 111 112
l 87 97
l 83 92
l 11 19
l 5 6
l 111 121
l 29 41
l 84 101
l 18 19
l 9 16
l 106 122
l 9 10
l 39 40
l 106 107
l 117 120
l 4 11
l 109 118
l 28 49
l 10 12
l 109 110
l 27 33
l 81 82
l 8 12
l 25 43
l 3 13
l 115 123
l 50 51
l 82 98
l 24 25
l 80 94
l 112 116
l 39 43
l 81 87
l 78 96
l 49 50
l 118 119
l 27 28
l 99 100
l 113 114
l 113 120
l 98 99
l 5 14
