# Blender v2.79 (sub 0) OBJ File: 'gremlin.blend'
# www.blender.org
mtllib largeRamp.mtl
o Cube.002_Cube.006
v -1.364277 -0.003794 2.578551
v -1.364277 3.694692 2.481201
v -1.364277 -0.003794 -5.792558
v 1.364277 -0.003794 2.578551
v 1.364277 3.694692 2.481201
v 1.364277 -0.003794 -5.792558
vn -1.0000 -0.0000 0.0000
vn 0.0000 0.9129 -0.4081
vn 1.0000 -0.0000 0.0000
vn 0.0000 0.0263 0.9997
vn 0.0000 -1.0000 0.0000
usemtl None
s off
f 1//1 2//1 3//1
f 2//2 6//2 3//2
f 6//3 5//3 4//3
f 5//4 1//4 4//4
f 6//5 1//5 3//5
f 2//2 5//2 6//2
f 5//4 2//4 1//4
f 6//5 4//5 1//5
