# Blender v2.79 (sub 0) OBJ File: 'gremlin.blend'
# www.blender.org
mtllib medRamp.mtl
o Cube.001_Cube.003
v -1.364277 -0.003794 3.424925
v -1.364277 1.542482 3.424925
v -1.364277 -0.003794 -5.649004
v 1.364277 -0.003794 3.424925
v 1.364277 1.542482 3.424925
v 1.364277 -0.003794 -5.649004
vn -1.0000 0.0000 0.0000
vn 0.0000 0.9858 -0.1680
vn 1.0000 0.0000 0.0000
vn 0.0000 0.0000 1.0000
vn 0.0000 -1.0000 0.0000
usemtl None
s off
f 1//1 2//1 3//1
f 2//2 6//2 3//2
f 6//3 5//3 4//3
f 5//4 1//4 4//4
f 6//5 1//5 3//5
f 2//2 5//2 6//2
f 5//4 2//4 1//4
f 6//5 4//5 1//5
